<mxfile host="app.diagrams.net" modified="2022-09-12T06:54:46.806Z" agent="5.0 (Windows)" etag="JiXK6S5e6x5o_p7hDmuj" version="20.2.8" type="github">
  <diagram id="prtHgNgQTEPvFCAcTncT" name="Page-1">
    <mxGraphModel dx="1038" dy="536" grid="1" gridSize="10" guides="1" tooltips="1" connect="1" arrows="1" fold="1" page="1" pageScale="1" pageWidth="827" pageHeight="1169" math="0" shadow="0">
      <root>
        <mxCell id="0" />
        <mxCell id="1" parent="0" />
        <mxCell id="dNxyNK7c78bLwvsdeMH5-11" value="E-Government Org Structure" style="swimlane;html=1;startSize=20;horizontal=1;containerType=tree;glass=0;" parent="1" vertex="1">
          <mxGeometry y="80" width="820" height="660" as="geometry" />
        </mxCell>
        <UserObject label="%name%&lt;br&gt;&lt;i style=&quot;color: gray&quot;&gt;%position%&lt;/i&gt;&lt;br&gt;&lt;a href=&quot;mailto:%email%&quot;&gt;Email&lt;/a&gt;" name="Mary Kerema" position="Deputy Director" placeholders="1" id="dNxyNK7c78bLwvsdeMH5-12">
          <mxCell style="label;image=https://cdn3.iconfinder.com/data/icons/user-avatars-1/512/users-3-128.png;whiteSpace=wrap;html=1;rounded=0;glass=0;treeMoving=1;treeFolding=1;" parent="dNxyNK7c78bLwvsdeMH5-11" vertex="1">
            <mxGeometry x="230" y="45" width="180" height="70" as="geometry" />
          </mxCell>
        </UserObject>
        <mxCell id="dNxyNK7c78bLwvsdeMH5-13" value="" style="endArrow=blockThin;endFill=1;fontSize=11;edgeStyle=elbowEdgeStyle;elbow=vertical;rounded=0;" parent="dNxyNK7c78bLwvsdeMH5-11" source="dNxyNK7c78bLwvsdeMH5-12" target="dNxyNK7c78bLwvsdeMH5-14" edge="1">
          <mxGeometry relative="1" as="geometry" />
        </mxCell>
        <UserObject label="%name%&lt;br&gt;&lt;i style=&quot;color: gray&quot;&gt;%position%&lt;/i&gt;&lt;br&gt;&lt;a href=&quot;mailto:%email%&quot;&gt;Email&lt;/a&gt;" name="VACANT" position="AD, Software Engineering" placeholders="1" id="dNxyNK7c78bLwvsdeMH5-14">
          <mxCell style="label;image=https://cdn3.iconfinder.com/data/icons/user-avatars-1/512/users-10-3-128.png;whiteSpace=wrap;html=1;rounded=0;glass=0;treeFolding=1;treeMoving=1;" parent="dNxyNK7c78bLwvsdeMH5-11" vertex="1">
            <mxGeometry x="10" y="175" width="180" height="80" as="geometry" />
          </mxCell>
        </UserObject>
        <mxCell id="dNxyNK7c78bLwvsdeMH5-15" value="" style="endArrow=blockThin;endFill=1;fontSize=11;edgeStyle=elbowEdgeStyle;elbow=vertical;rounded=0;" parent="dNxyNK7c78bLwvsdeMH5-11" source="dNxyNK7c78bLwvsdeMH5-12" target="dNxyNK7c78bLwvsdeMH5-16" edge="1">
          <mxGeometry relative="1" as="geometry" />
        </mxCell>
        <UserObject label="%name%&lt;br&gt;&lt;i style=&quot;color: gray&quot;&gt;%position%&lt;/i&gt;&lt;br&gt;&lt;a href=&quot;mailto:%email%&quot;&gt;Email&lt;/a&gt;" name="VACANT" position="AD, Web Development" placeholders="1" id="dNxyNK7c78bLwvsdeMH5-16">
          <mxCell style="label;image=https://cdn3.iconfinder.com/data/icons/user-avatars-1/512/users-9-2-128.png;whiteSpace=wrap;html=1;rounded=0;glass=0;treeFolding=1;treeMoving=1;" parent="dNxyNK7c78bLwvsdeMH5-11" vertex="1">
            <mxGeometry x="230" y="175" width="180" height="80" as="geometry" />
          </mxCell>
        </UserObject>
        <mxCell id="dNxyNK7c78bLwvsdeMH5-17" value="" style="endArrow=blockThin;endFill=1;fontSize=11;edgeStyle=elbowEdgeStyle;elbow=vertical;rounded=0;" parent="dNxyNK7c78bLwvsdeMH5-11" source="dNxyNK7c78bLwvsdeMH5-12" target="dNxyNK7c78bLwvsdeMH5-18" edge="1">
          <mxGeometry relative="1" as="geometry" />
        </mxCell>
        <UserObject label="%name%&lt;br&gt;&lt;i style=&quot;color: gray&quot;&gt;%position%&lt;/i&gt;&lt;br&gt;&lt;a href=&quot;mailto:%email%&quot;&gt;Email&lt;/a&gt;" name="VACANT" position="AD, Business Intelligence" placeholders="1" id="dNxyNK7c78bLwvsdeMH5-18">
          <mxCell style="label;image=https://cdn3.iconfinder.com/data/icons/user-avatars-1/512/users-2-128.png;whiteSpace=wrap;html=1;rounded=0;glass=0;" parent="dNxyNK7c78bLwvsdeMH5-11" vertex="1">
            <mxGeometry x="460" y="175" width="180" height="80" as="geometry" />
          </mxCell>
        </UserObject>
        <mxCell id="r-qgvxp6qcg7hW2vkoO4-9" value="" style="endArrow=blockThin;endFill=1;fontSize=11;edgeStyle=elbowEdgeStyle;elbow=vertical;rounded=0;" parent="dNxyNK7c78bLwvsdeMH5-11" source="dNxyNK7c78bLwvsdeMH5-14" target="r-qgvxp6qcg7hW2vkoO4-10" edge="1">
          <mxGeometry relative="1" as="geometry">
            <mxPoint x="360" y="195" as="sourcePoint" />
          </mxGeometry>
        </mxCell>
        <UserObject label="%name%&lt;br&gt;&lt;i style=&quot;color: gray&quot;&gt;%position%&lt;/i&gt;&lt;br&gt;&lt;a href=&quot;mailto:%email%&quot;&gt;Email&lt;/a&gt;" name="Kenneth Magua" position="PICTO, Software Engineering" placeholders="1" id="r-qgvxp6qcg7hW2vkoO4-10">
          <mxCell style="label;image=https://cdn3.iconfinder.com/data/icons/user-avatars-1/512/users-10-3-128.png;whiteSpace=wrap;html=1;rounded=0;glass=0;treeFolding=1;treeMoving=1;" parent="dNxyNK7c78bLwvsdeMH5-11" vertex="1">
            <mxGeometry x="10" y="295" width="180" height="80" as="geometry" />
          </mxCell>
        </UserObject>
        <mxCell id="r-qgvxp6qcg7hW2vkoO4-11" value="" style="endArrow=blockThin;endFill=1;fontSize=11;edgeStyle=elbowEdgeStyle;elbow=vertical;rounded=0;" parent="dNxyNK7c78bLwvsdeMH5-11" source="r-qgvxp6qcg7hW2vkoO4-10" target="r-qgvxp6qcg7hW2vkoO4-12" edge="1">
          <mxGeometry relative="1" as="geometry">
            <mxPoint x="140" y="335" as="sourcePoint" />
          </mxGeometry>
        </mxCell>
        <UserObject label="%name%&lt;br&gt;&lt;i style=&quot;color: gray&quot;&gt;%position%&lt;/i&gt;&lt;br&gt;&lt;a href=&quot;mailto:%email%&quot;&gt;Email&lt;/a&gt;" name="Canjetan Ngahu" position="SICTO, Software Engineering" placeholders="1" id="r-qgvxp6qcg7hW2vkoO4-12">
          <mxCell style="label;image=https://cdn3.iconfinder.com/data/icons/user-avatars-1/512/users-10-3-128.png;whiteSpace=wrap;html=1;rounded=0;glass=0;treeFolding=1;treeMoving=1;" parent="dNxyNK7c78bLwvsdeMH5-11" vertex="1">
            <mxGeometry x="10" y="415" width="180" height="80" as="geometry" />
          </mxCell>
        </UserObject>
        <mxCell id="r-qgvxp6qcg7hW2vkoO4-13" value="" style="endArrow=blockThin;endFill=1;fontSize=11;edgeStyle=elbowEdgeStyle;elbow=vertical;rounded=0;" parent="dNxyNK7c78bLwvsdeMH5-11" source="dNxyNK7c78bLwvsdeMH5-16" target="r-qgvxp6qcg7hW2vkoO4-14" edge="1">
          <mxGeometry relative="1" as="geometry">
            <mxPoint x="360" y="195" as="sourcePoint" />
          </mxGeometry>
        </mxCell>
        <UserObject label="%name%&lt;br&gt;&lt;i style=&quot;color: gray&quot;&gt;%position%&lt;/i&gt;&lt;br&gt;&lt;a href=&quot;mailto:%email%&quot;&gt;Email&lt;/a&gt;" name="VACANT" position="PICTO, Web Development" placeholders="1" id="r-qgvxp6qcg7hW2vkoO4-14">
          <mxCell style="label;image=https://cdn3.iconfinder.com/data/icons/user-avatars-1/512/users-9-2-128.png;whiteSpace=wrap;html=1;rounded=0;glass=0;treeFolding=1;treeMoving=1;" parent="dNxyNK7c78bLwvsdeMH5-11" vertex="1">
            <mxGeometry x="230" y="295" width="180" height="80" as="geometry" />
          </mxCell>
        </UserObject>
        <mxCell id="r-qgvxp6qcg7hW2vkoO4-15" value="" style="endArrow=blockThin;endFill=1;fontSize=11;edgeStyle=elbowEdgeStyle;elbow=vertical;rounded=0;" parent="dNxyNK7c78bLwvsdeMH5-11" source="dNxyNK7c78bLwvsdeMH5-18" target="r-qgvxp6qcg7hW2vkoO4-16" edge="1">
          <mxGeometry relative="1" as="geometry">
            <mxPoint x="360" y="195" as="sourcePoint" />
          </mxGeometry>
        </mxCell>
        <UserObject label="%name%&lt;br&gt;&lt;i style=&quot;color: gray&quot;&gt;%position%&lt;/i&gt;&lt;br&gt;&lt;a href=&quot;mailto:%email%&quot;&gt;Email&lt;/a&gt;" name="VACANT" position="PICTO, Business Intelligence" placeholders="1" id="r-qgvxp6qcg7hW2vkoO4-16">
          <mxCell style="label;image=https://cdn3.iconfinder.com/data/icons/user-avatars-1/512/users-2-128.png;whiteSpace=wrap;html=1;rounded=0;glass=0;" parent="dNxyNK7c78bLwvsdeMH5-11" vertex="1">
            <mxGeometry x="460" y="295" width="180" height="80" as="geometry" />
          </mxCell>
        </UserObject>
        <mxCell id="r-qgvxp6qcg7hW2vkoO4-17" value="" style="endArrow=blockThin;endFill=1;fontSize=11;edgeStyle=elbowEdgeStyle;elbow=vertical;rounded=0;" parent="dNxyNK7c78bLwvsdeMH5-11" source="r-qgvxp6qcg7hW2vkoO4-14" target="r-qgvxp6qcg7hW2vkoO4-18" edge="1">
          <mxGeometry relative="1" as="geometry">
            <mxPoint x="360" y="335" as="sourcePoint" />
          </mxGeometry>
        </mxCell>
        <UserObject label="%name%&lt;br&gt;&lt;i style=&quot;color: gray&quot;&gt;%position%&lt;/i&gt;&lt;br&gt;&lt;a href=&quot;mailto:%email%&quot;&gt;Email&lt;/a&gt;" name="Simon Saitoti, Stephen Mwaura and Matayo Odhul" position="SICTO, Web Development" placeholders="1" id="r-qgvxp6qcg7hW2vkoO4-18">
          <mxCell style="label;image=https://cdn3.iconfinder.com/data/icons/user-avatars-1/512/users-9-2-128.png;whiteSpace=wrap;html=1;rounded=0;glass=0;treeFolding=1;treeMoving=1;" parent="dNxyNK7c78bLwvsdeMH5-11" vertex="1">
            <mxGeometry x="210" y="415" width="220" height="90" as="geometry" />
          </mxCell>
        </UserObject>
        <mxCell id="r-qgvxp6qcg7hW2vkoO4-19" value="" style="endArrow=blockThin;endFill=1;fontSize=11;edgeStyle=elbowEdgeStyle;elbow=vertical;rounded=0;" parent="dNxyNK7c78bLwvsdeMH5-11" source="r-qgvxp6qcg7hW2vkoO4-16" target="r-qgvxp6qcg7hW2vkoO4-20" edge="1">
          <mxGeometry relative="1" as="geometry">
            <mxPoint x="590" y="335" as="sourcePoint" />
          </mxGeometry>
        </mxCell>
        <UserObject label="%name%&lt;br&gt;&lt;i style=&quot;color: gray&quot;&gt;%position%&lt;/i&gt;&lt;br&gt;&lt;a href=&quot;mailto:%email%&quot;&gt;Email&lt;/a&gt;" name="Christopher Kilelo &amp; Jackline Waburaka" position="SICTO, Business Intelligence" placeholders="1" id="r-qgvxp6qcg7hW2vkoO4-20">
          <mxCell style="label;image=https://cdn3.iconfinder.com/data/icons/user-avatars-1/512/users-2-128.png;whiteSpace=wrap;html=1;rounded=0;glass=0;" parent="dNxyNK7c78bLwvsdeMH5-11" vertex="1">
            <mxGeometry x="460" y="415" width="180" height="80" as="geometry" />
          </mxCell>
        </UserObject>
        <mxCell id="r-qgvxp6qcg7hW2vkoO4-21" value="" style="endArrow=blockThin;endFill=1;fontSize=11;edgeStyle=elbowEdgeStyle;elbow=vertical;rounded=0;" parent="dNxyNK7c78bLwvsdeMH5-11" source="r-qgvxp6qcg7hW2vkoO4-12" target="r-qgvxp6qcg7hW2vkoO4-22" edge="1">
          <mxGeometry relative="1" as="geometry">
            <mxPoint x="140" y="455" as="sourcePoint" />
          </mxGeometry>
        </mxCell>
        <UserObject label="%name%&lt;br&gt;&lt;i style=&quot;color: gray&quot;&gt;%position%&lt;/i&gt;&lt;br&gt;&lt;a href=&quot;mailto:%email%&quot;&gt;Email&lt;/a&gt;" name="Samuel Mayenga" position="ICTO, Software Engineering" placeholders="1" id="r-qgvxp6qcg7hW2vkoO4-22">
          <mxCell style="label;image=https://cdn3.iconfinder.com/data/icons/user-avatars-1/512/users-10-3-128.png;whiteSpace=wrap;html=1;rounded=0;glass=0;treeFolding=1;treeMoving=1;" parent="dNxyNK7c78bLwvsdeMH5-11" vertex="1">
            <mxGeometry x="10" y="535" width="180" height="80" as="geometry" />
          </mxCell>
        </UserObject>
        <mxCell id="r-qgvxp6qcg7hW2vkoO4-23" value="" style="endArrow=blockThin;endFill=1;fontSize=11;edgeStyle=elbowEdgeStyle;elbow=vertical;rounded=0;" parent="dNxyNK7c78bLwvsdeMH5-11" source="r-qgvxp6qcg7hW2vkoO4-18" target="r-qgvxp6qcg7hW2vkoO4-24" edge="1">
          <mxGeometry relative="1" as="geometry">
            <mxPoint x="360" y="455" as="sourcePoint" />
          </mxGeometry>
        </mxCell>
        <UserObject label="%name%&lt;br&gt;&lt;i style=&quot;color: gray&quot;&gt;%position%&lt;/i&gt;&lt;br&gt;&lt;a href=&quot;mailto:%email%&quot;&gt;Email&lt;/a&gt;" name="VACANT" position="ICTO, Web Development" placeholders="1" id="r-qgvxp6qcg7hW2vkoO4-24">
          <mxCell style="label;image=https://cdn3.iconfinder.com/data/icons/user-avatars-1/512/users-9-2-128.png;whiteSpace=wrap;html=1;rounded=0;glass=0;treeFolding=1;treeMoving=1;" parent="dNxyNK7c78bLwvsdeMH5-11" vertex="1">
            <mxGeometry x="230" y="535" width="180" height="80" as="geometry" />
          </mxCell>
        </UserObject>
        <mxCell id="r-qgvxp6qcg7hW2vkoO4-25" value="" style="endArrow=blockThin;endFill=1;fontSize=11;edgeStyle=elbowEdgeStyle;elbow=vertical;rounded=0;" parent="dNxyNK7c78bLwvsdeMH5-11" source="r-qgvxp6qcg7hW2vkoO4-20" target="r-qgvxp6qcg7hW2vkoO4-26" edge="1">
          <mxGeometry relative="1" as="geometry">
            <mxPoint x="590" y="455" as="sourcePoint" />
          </mxGeometry>
        </mxCell>
        <UserObject label="%name%&lt;br&gt;&lt;i style=&quot;color: gray&quot;&gt;%position%&lt;/i&gt;&lt;br&gt;&lt;a href=&quot;mailto:%email%&quot;&gt;Email&lt;/a&gt;" name="VACANT" position="ICTO, Business Intelligence" placeholders="1" id="r-qgvxp6qcg7hW2vkoO4-26">
          <mxCell style="label;image=https://cdn3.iconfinder.com/data/icons/user-avatars-1/512/users-2-128.png;whiteSpace=wrap;html=1;rounded=0;glass=0;" parent="dNxyNK7c78bLwvsdeMH5-11" vertex="1">
            <mxGeometry x="460" y="535" width="180" height="80" as="geometry" />
          </mxCell>
        </UserObject>
        <mxCell id="5okKuaLf_6PDlXFZCLUN-3" value="" style="shape=flexArrow;endArrow=classic;html=1;rounded=0;strokeWidth=1;endSize=13;startSize=6;width=30;" edge="1" parent="dNxyNK7c78bLwvsdeMH5-11">
          <mxGeometry width="50" height="50" relative="1" as="geometry">
            <mxPoint x="810" y="80" as="sourcePoint" />
            <mxPoint x="690" y="80" as="targetPoint" />
            <Array as="points">
              <mxPoint x="750" y="80" />
            </Array>
          </mxGeometry>
        </mxCell>
        <mxCell id="5okKuaLf_6PDlXFZCLUN-6" value="ICTA 3" style="edgeLabel;html=1;align=center;verticalAlign=middle;resizable=0;points=[];fontStyle=1" vertex="1" connectable="0" parent="5okKuaLf_6PDlXFZCLUN-3">
          <mxGeometry x="0.25" y="-3" relative="1" as="geometry">
            <mxPoint x="22" y="2" as="offset" />
          </mxGeometry>
        </mxCell>
        <mxCell id="5okKuaLf_6PDlXFZCLUN-9" value="" style="shape=flexArrow;endArrow=classic;html=1;rounded=0;strokeWidth=1;endSize=13;startSize=6;width=30;" edge="1" parent="dNxyNK7c78bLwvsdeMH5-11">
          <mxGeometry width="50" height="50" relative="1" as="geometry">
            <mxPoint x="810" y="334.5" as="sourcePoint" />
            <mxPoint x="690" y="334.5" as="targetPoint" />
            <Array as="points" />
          </mxGeometry>
        </mxCell>
        <mxCell id="5okKuaLf_6PDlXFZCLUN-10" value="ICTA 5" style="edgeLabel;html=1;align=center;verticalAlign=middle;resizable=0;points=[];fontStyle=1" vertex="1" connectable="0" parent="5okKuaLf_6PDlXFZCLUN-9">
          <mxGeometry x="0.25" y="-3" relative="1" as="geometry">
            <mxPoint x="22" y="2" as="offset" />
          </mxGeometry>
        </mxCell>
        <mxCell id="5okKuaLf_6PDlXFZCLUN-11" value="" style="shape=flexArrow;endArrow=classic;html=1;rounded=0;strokeWidth=1;endSize=13;startSize=6;width=30;" edge="1" parent="dNxyNK7c78bLwvsdeMH5-11">
          <mxGeometry width="50" height="50" relative="1" as="geometry">
            <mxPoint x="810" y="454.5" as="sourcePoint" />
            <mxPoint x="690" y="454.5" as="targetPoint" />
            <Array as="points">
              <mxPoint x="750" y="454.5" />
            </Array>
          </mxGeometry>
        </mxCell>
        <mxCell id="5okKuaLf_6PDlXFZCLUN-12" value="ICTA 6" style="edgeLabel;html=1;align=center;verticalAlign=middle;resizable=0;points=[];fontStyle=1" vertex="1" connectable="0" parent="5okKuaLf_6PDlXFZCLUN-11">
          <mxGeometry x="0.25" y="-3" relative="1" as="geometry">
            <mxPoint x="22" y="2" as="offset" />
          </mxGeometry>
        </mxCell>
        <mxCell id="5okKuaLf_6PDlXFZCLUN-13" value="" style="shape=flexArrow;endArrow=classic;html=1;rounded=0;strokeWidth=1;endSize=13;startSize=6;width=30;" edge="1" parent="dNxyNK7c78bLwvsdeMH5-11">
          <mxGeometry width="50" height="50" relative="1" as="geometry">
            <mxPoint x="810" y="574.5" as="sourcePoint" />
            <mxPoint x="690" y="574.5" as="targetPoint" />
            <Array as="points">
              <mxPoint x="750" y="574.5" />
            </Array>
          </mxGeometry>
        </mxCell>
        <mxCell id="5okKuaLf_6PDlXFZCLUN-14" value="ICTA 7" style="edgeLabel;html=1;align=center;verticalAlign=middle;resizable=0;points=[];fontStyle=1" vertex="1" connectable="0" parent="5okKuaLf_6PDlXFZCLUN-13">
          <mxGeometry x="0.25" y="-3" relative="1" as="geometry">
            <mxPoint x="22" y="2" as="offset" />
          </mxGeometry>
        </mxCell>
        <mxCell id="5okKuaLf_6PDlXFZCLUN-16" value="GRADE" style="text;html=1;strokeColor=none;fillColor=none;align=center;verticalAlign=middle;whiteSpace=wrap;rounded=0;fontStyle=5;fontSize=19;" vertex="1" parent="dNxyNK7c78bLwvsdeMH5-11">
          <mxGeometry x="720" y="15" width="80" height="30" as="geometry" />
        </mxCell>
        <mxCell id="5okKuaLf_6PDlXFZCLUN-7" value="" style="shape=flexArrow;endArrow=classic;html=1;rounded=0;strokeWidth=1;endSize=13;startSize=6;width=30;" edge="1" parent="1">
          <mxGeometry width="50" height="50" relative="1" as="geometry">
            <mxPoint x="810" y="300" as="sourcePoint" />
            <mxPoint x="690" y="300" as="targetPoint" />
            <Array as="points">
              <mxPoint x="750" y="300" />
            </Array>
          </mxGeometry>
        </mxCell>
        <mxCell id="5okKuaLf_6PDlXFZCLUN-8" value="ICTA 4" style="edgeLabel;html=1;align=center;verticalAlign=middle;resizable=0;points=[];fontStyle=1" vertex="1" connectable="0" parent="5okKuaLf_6PDlXFZCLUN-7">
          <mxGeometry x="0.25" y="-3" relative="1" as="geometry">
            <mxPoint x="22" y="2" as="offset" />
          </mxGeometry>
        </mxCell>
      </root>
    </mxGraphModel>
  </diagram>
</mxfile>
